<?xml version="1.0" encoding="utf-8"?>
<!-- Generator: Adobe Illustrator 21.1.0, SVG Export Plug-In . SVG Version: 6.00 Build 0)  -->
<svg version="1.1" id="Layer_1" xmlns="http://www.w3.org/2000/svg" xmlns:xlink="http://www.w3.org/1999/xlink" x="0px" y="0px"
	 viewBox="0 0 77.4 80.1" style="enable-background:new 0 0 77.4 80.1;" xml:space="preserve">
<g>
	<g>
		<path d="M12.2,59.9c0,1.8,0.5,3.2,1.6,4c1.1,0.8,2.6,1.3,4.7,1.3V69c-3.4,0-6.1-0.8-8-2.4c-1.9-1.5-2.8-3.7-2.8-6.5v-8.2
			c0-1.9-0.6-3.2-1.7-4c-1.1-0.8-2.8-1.2-5-1.2v-3.8c2.4,0,4.1-0.5,5.1-1.3c1.1-0.8,1.6-2.1,1.6-3.9v-8.3c0-2.8,1-5,2.9-6.5
			c2-1.6,4.6-2.3,7.9-2.3v3.8c-4.2,0.1-6.2,1.9-6.2,5.4v8c0,3.9-2,6.2-6.1,6.9v0.3c4,0.7,6.1,3,6.1,6.9V59.9z"/>
	</g>
	<g>
		<path d="M57.4,44.6c-4-0.7-6.1-3-6.1-6.9v-8c0-3.5-2.1-5.3-6.2-5.4v-3.8c3.3,0,6,0.8,7.9,2.4c1.9,1.6,2.9,3.7,2.9,6.5v8.3
			c0,1.8,0.5,3,1.6,3.9c1.1,0.8,2.8,1.3,5.1,1.3v3.8c-2.2,0-3.9,0.4-5,1.2c-1.1,0.8-1.7,2.2-1.7,4v8.2c0,2.8-0.9,4.9-2.8,6.5
			c-1.9,1.5-4.5,2.3-7.9,2.4v-3.8c2,0,3.5-0.5,4.6-1.3c1.1-0.8,1.6-2.2,1.6-4v-8.1c0-2.1,0.5-3.6,1.5-4.7c1-1.1,2.5-1.8,4.6-2.2
			V44.6z"/>
	</g>
	<path d="M59.1,34.6v-3.3c0,0,0.6-4.7,7.7-4.7c5.6,0,10.7,5.9,10.7,11.6c0,17-18.4,20.6-18.4,20.6v-2.5c0,0,13.3-4.5,13.3-17.2
		c0-4.8-3.7-7.9-7.1-7.9C61.5,31.3,59.1,34.6,59.1,34.6z"/>
	<path d="M16.7,41.3c0,0-1.6-6.8,11.2-8.1v3.5c0,0-8.3,0-8.7,4.5L16.7,41.3z"/>
	<circle cx="24.1" cy="44.2" r="2.5"/>
	<circle cx="40.8" cy="44.2" r="2.5"/>
	<path d="M24.5,56.9c0,0,19.1,4.4,15.9-6.8h4c0,0,5.3,15.9-19.9,9.9L24.5,56.9z"/>
	<path d="M27.4,49.4l0,2.1c0,0,2.2,1.4,5.3,1.6c0.6,0,2.3-0.2,2.4-1.4l0-13.8c0,0-0.1-1.9,3.2-1.9c2.3,0,5.3,1.6,6.6,2.7l0-2.9
		c0,0-3.9-3.3-8.8-3.3c-3.7,0-4.1,1.2-4.3,2.7v13.8C31.8,48.7,30.5,50.2,27.4,49.4z"/>
	<path d="M0,71.9v-2.4c0,0,16.2,3,32.1,3c14.8,0,32.4-2.9,32.4-2.9V72c0,0-14.3,5.6-18.3,5.8l-0.7,2.4H18.4l-0.8-2.6
		C17.5,77.5,9.6,76.1,0,71.9z"/>
	<path d="M24.2,24.5l0,1.6c2.1-0.3,7.9-3.3,7.9-6.9c0-2.3-2-5.2-6.2-5.2c-3.5,0-6.3,3.5-5.1,6.5h1.8c-0.2-1.6,1-3.3,2.9-3.3
		c2.1,0,2.9,1.7,2.9,3C28.4,23,24.3,24.5,24.2,24.5z"/>
	<path d="M29.6,24.7c0,0,7.4-2.9,7.4-6.6c0-5.6-13.1-4.8-13.1-12c0-4.3,3.1-6.1,5.6-6.1c2.6,0,4.5,2,4.5,3.8c0,0.8-0.3,1.7-0.8,2.1
		l-1.8,0c0,0,0.5-0.4,0.5-1.5c0-0.8-0.8-2-2.1-2c-1,0-2.1,0.7-2.1,2.4c0,4.7,15.3,4.2,15.3,12.5c0,5.5-9.2,8.3-13.5,8.7V24.7z"/>
</g>
</svg>
